<svg width="20" height="46" viewBox="0 0 37 62" fill="none" xmlns="http://www.w3.org/2000/svg">
<path d="M1.52717 1.52682C2.00717 1.04302 2.57824 0.659022 3.20744 0.39697C3.83664 0.134918 4.51152 0 5.19315 0C5.87477 0 6.54965 0.134918 7.17885 0.39697C7.80805 0.659022 8.37912 1.04302 8.85912 1.52682L34.6758 27.3352C35.1598 27.8151 35.5439 28.3859 35.806 29.0149C36.0682 29.6439 36.2031 30.3186 36.2031 31C36.2031 31.6814 36.0682 32.3561 35.806 32.9851C35.5439 33.6141 35.1598 34.1849 34.6758 34.6648L8.85912 60.4732C8.37912 60.957 7.80805 61.341 7.17885 61.603C6.54965 61.8651 5.87477 62 5.19315 62C4.51152 62 3.83664 61.8651 3.20744 61.603C2.57824 61.341 2.00717 60.957 1.52717 60.4732C1.04322 59.9933 0.6591 59.4225 0.396965 58.7935C0.13483 58.1645 -0.000133514 57.4898 -0.000133514 56.8084C-0.000133514 56.127 0.13483 55.4523 0.396965 54.8233C0.6591 54.1943 1.04322 53.6235 1.52717 53.1436L23.7295 31L1.52717 8.8564C1.04322 8.37655 0.6591 7.80567 0.396965 7.17667C0.13483 6.54767 -0.000133514 5.87301 -0.000133514 5.19161C-0.000133514 4.5102 0.13483 3.83554 0.396965 3.20655C0.6591 2.57755 1.04322 2.00666 1.52717 1.52682Z" fill="#D8D8D8"/>
</svg>
