<svg width="21" height="27" viewBox="0 0 19 26" fill="none" xmlns="http://www.w3.org/2000/svg">
<path d="M9.2 12.3592C8.32857 12.3592 7.49284 12.0221 6.87665 11.422C6.26046 10.8218 5.91429 10.0079 5.91429 9.15922C5.91429 8.31053 6.26046 7.49659 6.87665 6.89648C7.49284 6.29636 8.32857 5.95922 9.2 5.95922C10.0714 5.95922 10.9072 6.29636 11.5233 6.89648C12.1395 7.49659 12.4857 8.31053 12.4857 9.15922C12.4857 9.57945 12.4007 9.99556 12.2356 10.3838C12.0705 10.772 11.8285 11.1248 11.5233 11.422C11.2182 11.7191 10.856 11.9548 10.4574 12.1156C10.0587 12.2764 9.63149 12.3592 9.2 12.3592ZM9.2 0.199219C6.76001 0.199219 4.41995 1.14322 2.69462 2.82354C0.969283 4.50387 0 6.78288 0 9.15922C0 15.8792 9.2 25.7992 9.2 25.7992C9.2 25.7992 18.4 15.8792 18.4 9.15922C18.4 6.78288 17.4307 4.50387 15.7054 2.82354C13.98 1.14322 11.64 0.199219 9.2 0.199219Z" fill="#0395D9"/>
</svg>
