<svg width="21" height="27" viewBox="0 0 21 27" fill="none" xmlns="http://www.w3.org/2000/svg">
<path d="M10.5 0C7.71624 0.0033176 5.04743 1.12192 3.07901 3.11042C1.1106 5.09893 0.00329525 7.79497 1.11709e-05 10.6071C-0.00332295 12.9053 0.739765 15.141 2.11528 16.9714C2.11528 16.9714 2.40165 17.3523 2.44842 17.4073L10.5 27L18.5554 17.4025C18.5974 17.3514 18.8847 16.9714 18.8847 16.9714L18.8857 16.9685C20.2605 15.1389 21.0033 12.9042 21 10.6071C20.9967 7.79497 19.8894 5.09893 17.921 3.11042C15.9526 1.12192 13.2838 0.0033176 10.5 0ZM11.4545 15.4286H9.54546V13.5H11.4545V15.4286ZM11.4545 11.5714H9.54546V9.64286H11.4545V11.5714ZM15.2727 15.4286H13.3636V7.71429H7.63637V15.4286H5.72728V7.71429C5.72778 7.20295 5.92908 6.71271 6.287 6.35114C6.64491 5.98958 7.1302 5.78622 7.63637 5.78571H13.3636C13.8698 5.78622 14.3551 5.98958 14.713 6.35114C15.0709 6.71271 15.2722 7.20295 15.2727 7.71429V15.4286Z" fill="#0395D9"/>
</svg>
