<svg width="20" height="46" viewBox="0 0 37 62" fill="none" xmlns="http://www.w3.org/2000/svg">
<path d="M34.676 1.52682C34.196 1.04302 33.6249 0.659022 32.9957 0.39697C32.3665 0.134918 31.6916 0 31.01 0C30.3284 0 29.6535 0.134918 29.0243 0.39697C28.3951 0.659022 27.824 1.04302 27.344 1.52682L1.52731 27.3352C1.04336 27.8151 0.659232 28.3859 0.397097 29.0149C0.134961 29.6439 0 30.3186 0 31C0 31.6814 0.134961 32.3561 0.397097 32.9851C0.659232 33.6141 1.04336 34.1849 1.52731 34.6648L27.344 60.4732C27.824 60.957 28.3951 61.341 29.0243 61.603C29.6535 61.8651 30.3284 62 31.01 62C31.6916 62 32.3665 61.8651 32.9957 61.603C33.6249 61.341 34.196 60.957 34.676 60.4732C35.1599 59.9933 35.544 59.4225 35.8062 58.7935C36.0683 58.1645 36.2033 57.4898 36.2033 56.8084C36.2033 56.127 36.0683 55.4523 35.8062 54.8233C35.544 54.1943 35.1599 53.6235 34.676 53.1436L12.4736 31L34.676 8.8564C35.1599 8.37655 35.544 7.80567 35.8062 7.17667C36.0683 6.54767 36.2033 5.87301 36.2033 5.19161C36.2033 4.5102 36.0683 3.83554 35.8062 3.20655C35.544 2.57755 35.1599 2.00666 34.676 1.52682Z" fill="#D8D8D8"/>
</svg>
