<svg width="66" height="66" viewBox="0 0 75 77" fill="none" xmlns="http://www.w3.org/2000/svg">
<g filter="url(#filter0_d_133_236)">
<path fill-rule="evenodd" clip-rule="evenodd" d="M46.6236 33.6699V42.3058C46.6236 44.7633 45.6473 47.1202 43.9096 48.8579C42.1719 50.5956 39.8151 51.5718 37.3576 51.5718C34.9001 51.5718 32.5432 50.5956 30.8055 48.8579C29.0678 47.1202 28.0916 44.7633 28.0916 42.3058V33.6699C24.7174 35.6219 22.0414 38.5843 20.4416 42.139C19.8374 43.4882 19.5335 44.1627 19.3185 44.4629C18.6662 45.3784 18.1399 45.7194 17.0354 45.9418C16.6722 46.0122 16.157 46.0122 15.1192 46.0122C12.1702 46.0122 9.34199 47.1837 7.25674 49.269C5.17148 51.3542 4 54.1824 4 57.1314C4 60.0804 5.17148 62.9086 7.25674 64.9939C9.34199 67.0791 12.1702 68.2506 15.1192 68.2506H59.5959C62.5449 68.2506 65.3731 67.0791 67.4584 64.9939C69.5436 62.9086 70.7151 60.0804 70.7151 57.1314C70.7151 54.1824 69.5436 51.3542 67.4584 49.269C65.3731 47.1837 62.5449 46.0122 59.5959 46.0122C58.5581 46.0122 58.0392 46.0122 57.6797 45.9381C56.5752 45.7157 56.0489 45.3747 55.3966 44.4555C55.1816 44.159 54.8777 43.4845 54.2736 42.1353C52.673 38.582 49.9972 35.6209 46.6236 33.6699Z" fill="#FCFCFC"/>
<path d="M37.3581 5.24084L34.7377 2.62042L37.3581 0L39.9785 2.62042L37.3581 5.24084ZM41.0645 42.3048C41.0645 43.2878 40.674 44.2305 39.9789 44.9256C39.2838 45.6207 38.3411 46.0112 37.3581 46.0112C36.3751 46.0112 35.4324 45.6207 34.7373 44.9256C34.0422 44.2305 33.6517 43.2878 33.6517 42.3048H41.0645ZM19.9121 17.446L34.7377 2.62042L39.9785 7.86127L25.153 22.6868L19.9121 17.446ZM39.9785 2.62042L54.8041 17.446L49.5633 22.6868L34.7377 7.86127L39.9785 2.62042ZM41.0645 5.24084V42.3048H33.6517V5.24084H41.0645Z" fill="#FCFCFC"/>
</g>
<defs>
<filter id="filter0_d_133_236" x="0" y="0" width="74.7153" height="76.25" filterUnits="userSpaceOnUse" color-interpolation-filters="sRGB">
<feFlood flood-opacity="0" result="BackgroundImageFix"/>
<feColorMatrix in="SourceAlpha" type="matrix" values="0 0 0 0 0 0 0 0 0 0 0 0 0 0 0 0 0 0 127 0" result="hardAlpha"/>
<feOffset dy="4"/>
<feGaussianBlur stdDeviation="2"/>
<feComposite in2="hardAlpha" operator="out"/>
<feColorMatrix type="matrix" values="0 0 0 0 0 0 0 0 0 0 0 0 0 0 0 0 0 0 0.25 0"/>
<feBlend mode="normal" in2="BackgroundImageFix" result="effect1_dropShadow_133_236"/>
<feBlend mode="normal" in="SourceGraphic" in2="effect1_dropShadow_133_236" result="shape"/>
</filter>
</defs>
</svg>
